<?xml version="1.0" encoding="utf-8"?>
<!-- Generator: Adobe Illustrator 16.0.0, SVG Export Plug-In . SVG Version: 6.00 Build 0)  -->
<!DOCTYPE svg PUBLIC "-//W3C//DTD SVG 1.1//EN" "http://www.w3.org/Graphics/SVG/1.1/DTD/svg11.dtd">
<svg version="1.1" id="Layer_1" xmlns="http://www.w3.org/2000/svg" xmlns:xlink="http://www.w3.org/1999/xlink" x="0px" y="0px"
	 width="120px" height="120px" viewBox="-18.607 -18.607 120 120" enable-background="new -18.607 -18.607 120 120"
	 xml:space="preserve">
<g>
	<polygon fill="#FFFFFF" points="47.271,28.169 47.271,4.658 35.517,4.658 35.517,28.169 18.127,28.169 18.127,4.658 6.617,4.658 
		6.617,28.169 6.617,39.679 18.127,39.679 35.517,39.679 47.271,39.679 76.169,39.679 76.169,28.169 	"/>
	<polygon fill="#FFFFFF" points="76.169,65.883 56.821,55.843 76.169,55.843 76.169,44.333 59.76,44.333 48.496,44.333 
		34.291,44.333 23.026,44.333 6.617,44.333 6.617,55.843 25.965,55.843 6.617,65.883 6.617,78.861 41.393,60.985 76.169,78.861 	"/>
</g>
<g>
	<path fill="#FFFFFF" d="M41.393-12.484c29.633,0,53.878,24.245,53.878,53.877c0,29.633-24.245,53.878-53.878,53.878
		c-29.632,0-53.877-24.245-53.877-53.878C-12.484,11.76,11.76-12.484,41.393-12.484 M41.393-18.607c-33.061,0-60,26.939-60,60
		c0,33.062,26.939,60,60,60c33.062,0,60-26.938,60-60C101.393,8.332,74.454-18.607,41.393-18.607L41.393-18.607z"/>
</g>
</svg>
